<svg width="140" height="131" viewBox="0 0 140 131" fill="none" xmlns="http://www.w3.org/2000/svg">
<mask id="path-1-outside-1_1_2" maskUnits="userSpaceOnUse" x="10.112" y="16.0966" width="121" height="67" fill="black">
<rect fill="white" x="10.112" y="16.0966" width="121" height="67"/>
<path d="M16.112 76.1191C16.112 69.0247 17.5093 61.9999 20.2242 55.4456C22.9391 48.8912 26.9183 42.9358 31.9348 37.9194C36.9513 32.9029 42.9067 28.9237 49.461 26.2088C56.0153 23.4939 63.0402 22.0966 70.1345 22.0966C77.2288 22.0966 84.2537 23.4939 90.808 26.2088C97.3623 28.9237 103.318 32.903 108.334 37.9194C113.351 42.9359 117.33 48.8913 120.045 55.4456C122.76 61.9999 124.157 69.0248 124.157 76.1191L70.1345 76.1191L16.112 76.1191Z"/>
</mask>
<path d="M16.112 76.1191C16.112 69.0247 17.5093 61.9999 20.2242 55.4456C22.9391 48.8912 26.9183 42.9358 31.9348 37.9194C36.9513 32.9029 42.9067 28.9237 49.461 26.2088C56.0153 23.4939 63.0402 22.0966 70.1345 22.0966C77.2288 22.0966 84.2537 23.4939 90.808 26.2088C97.3623 28.9237 103.318 32.903 108.334 37.9194C113.351 42.9359 117.33 48.8913 120.045 55.4456C122.76 61.9999 124.157 69.0248 124.157 76.1191L70.1345 76.1191L16.112 76.1191Z" stroke="black" stroke-width="12" mask="url(#path-1-outside-1_1_2)"/>
<line x1="3" y1="79.7011" x2="136.321" y2="79.7012" stroke="black" stroke-width="6" stroke-linecap="round"/>
<ellipse cx="69.6314" cy="7.39146" rx="3.32164" ry="3.29829" transform="rotate(91.2262 69.6314 7.39146)" fill="black" stroke="black" stroke-width="8"/>
<path d="M31.4536 37.3997H42.4473C49.7764 37.3997 54.4985 39.5706 56.6138 43.9124C57.3745 45.5081 57.7549 47.3079 57.7549 49.3118C57.7549 51.2971 57.4858 52.9763 56.9478 54.3494C56.4282 55.7224 55.6953 56.9006 54.749 57.884C52.9307 59.7766 50.4258 61.0198 47.2344 61.6135C48.5518 65.677 50.7876 68.4788 53.9419 70.0188C54.981 70.5383 55.853 70.8167 56.5581 70.8538C57.7456 70.8909 58.5806 70.8538 59.063 70.7424V76.1418H57.8105C53.6357 76.1418 50.0825 74.6575 47.1509 71.6887C44.5718 69.1096 42.8369 65.8625 41.9463 61.9475H37.02V76.1418H31.4536V37.3997ZM42.0854 57.4944C45.4438 57.4944 47.9302 56.845 49.5444 55.5461C51.1587 54.2473 51.9658 52.2249 51.9658 49.4788C51.9658 45.8235 50.2681 43.467 46.8726 42.4094C45.6851 42.0383 44.2471 41.8528 42.5586 41.8528H37.02V57.4944H42.0854ZM60.0649 37.3997H65.854L73.3408 64.7307L74.4263 69.5457L75.6509 64.7307L83.4995 37.3997H88.8433L96.6084 64.7307L97.8608 69.7405L99.0576 64.7307L106.6 37.3997H112.167L100.421 76.1418H95.0776L86.9229 48.8665L86.0044 45.3875L85.1138 48.8665L77.0425 76.1418H71.6987L60.0649 37.3997Z" fill="black"/>
</svg>
